# xmcd
#
# Track frame offsets:
#	183
#	12650
#	34150
#	48503
#	62943
#	79055
#	92548
#	107555
#	121593
#	141010
#	154720
#	167628
#	185058
#	202100
#
# Disc length: 2912 seconds
#
# Revision: 107
# Processed by: cddbd v1.5.2PL0 Copyright (c) Steve Scherf et al.
# Submitted via: audiograbber 1.83.01
#
DISCID=bb0b5e0e
DTITLE=The Beatles - The Beatles 1967-1970 (Doble Azul) CD1
DYEAR=1993
DGENRE=Pop
TTITLE0=Back in the U.S.S.R. (1968)
TTITLE1=While my guitar gently weeps (1968) (George Harrison)
TTITLE2=Ob-la-di, ob-la-da (1968)
TTITLE3=Get back (1969)
TTITLE4=Don't let me down  (1969)
TTITLE5=The ballad of John and Yoko (1969)
TTITLE6=Old brown shoe (1969) (George Harrison)
TTITLE7=Here comes the sun (1969) (George Harrison)
TTITLE8=Come together (1969)
TTITLE9=Something (1969) (George Harrison)
TTITLE10=Octopus's garden (1969) (Richard Starkey)
TTITLE11=Let it be (1970)
TTITLE12=Across the universe (1970)
TTITLE13=The long and winding road (1970)
EXTD=The blue album
EXTT0=
EXTT1=
EXTT2=
EXTT3=
EXTT4=
EXTT5=
EXTT6=
EXTT7=
EXTT8=
EXTT9=
EXTT10=
EXTT11=
EXTT12=
EXTT13=
PLAYORDER=
